<svg width="55" height="15" viewBox="0 0 55 15" fill="none" xmlns="http://www.w3.org/2000/svg">
<path d="M5.88 11L3.836 7.29H3.262V11H0.868V1.172H4.886C5.66067 1.172 6.31867 1.30733 6.86 1.578C7.41067 1.84867 7.82133 2.222 8.092 2.698C8.36267 3.16467 8.498 3.68733 8.498 4.266C8.498 4.91933 8.31133 5.50267 7.938 6.016C7.574 6.52933 7.03267 6.89333 6.314 7.108L8.582 11H5.88ZM3.262 5.596H4.746C5.18467 5.596 5.51133 5.48867 5.726 5.274C5.95 5.05933 6.062 4.756 6.062 4.364C6.062 3.99067 5.95 3.69667 5.726 3.482C5.51133 3.26733 5.18467 3.16 4.746 3.16H3.262V5.596ZM13.6968 11.112C12.9315 11.112 12.2408 10.9487 11.6248 10.622C11.0181 10.2953 10.5375 9.82867 10.1828 9.222C9.83748 8.61533 9.66481 7.906 9.66481 7.094C9.66481 6.29133 9.84215 5.58667 10.1968 4.98C10.5515 4.364 11.0368 3.89267 11.6528 3.566C12.2688 3.23933 12.9595 3.076 13.7248 3.076C14.4901 3.076 15.1808 3.23933 15.7968 3.566C16.4128 3.89267 16.8981 4.364 17.2528 4.98C17.6075 5.58667 17.7848 6.29133 17.7848 7.094C17.7848 7.89667 17.6028 8.606 17.2388 9.222C16.8841 9.82867 16.3941 10.2953 15.7688 10.622C15.1528 10.9487 14.4621 11.112 13.6968 11.112ZM13.6968 9.04C14.1541 9.04 14.5415 8.872 14.8588 8.536C15.1855 8.2 15.3488 7.71933 15.3488 7.094C15.3488 6.46867 15.1901 5.988 14.8728 5.652C14.5648 5.316 14.1821 5.148 13.7248 5.148C13.2581 5.148 12.8708 5.316 12.5628 5.652C12.2548 5.97867 12.1008 6.45933 12.1008 7.094C12.1008 7.71933 12.2501 8.2 12.5488 8.536C12.8568 8.872 13.2395 9.04 13.6968 9.04ZM18.7189 7.094C18.7189 6.282 18.8822 5.57267 19.2089 4.966C19.5449 4.35933 20.0069 3.89267 20.5949 3.566C21.1922 3.23933 21.8735 3.076 22.6389 3.076C23.6189 3.076 24.4355 3.33267 25.0889 3.846C25.7515 4.35933 26.1855 5.08267 26.3909 6.016H23.8429C23.6282 5.41867 23.2129 5.12 22.5969 5.12C22.1582 5.12 21.8082 5.29267 21.5469 5.638C21.2855 5.974 21.1549 6.45933 21.1549 7.094C21.1549 7.72867 21.2855 8.21867 21.5469 8.564C21.8082 8.9 22.1582 9.068 22.5969 9.068C23.2129 9.068 23.6282 8.76933 23.8429 8.172H26.3909C26.1855 9.08667 25.7515 9.80533 25.0889 10.328C24.4262 10.8507 23.6095 11.112 22.6389 11.112C21.8735 11.112 21.1922 10.9487 20.5949 10.622C20.0069 10.2953 19.5449 9.82867 19.2089 9.222C18.8822 8.61533 18.7189 7.906 18.7189 7.094ZM32.5854 11L30.2054 7.724V11H27.8114V0.64H30.2054V6.366L32.5714 3.188H35.5254L32.2774 7.108L35.5534 11H32.5854ZM40.5257 5.176H39.2377V11H36.8437V5.176H35.9757V3.188H36.8437V2.964C36.8437 2.00267 37.1191 1.27467 37.6697 0.78C38.2204 0.276 39.0277 0.0239995 40.0917 0.0239995C40.2691 0.0239995 40.3997 0.0286661 40.4837 0.0379993V2.068C40.0264 2.04 39.7044 2.10533 39.5177 2.264C39.3311 2.42267 39.2377 2.70733 39.2377 3.118V3.188H40.5257V5.176ZM44.1847 0.64V11H41.7907V0.64H44.1847ZM54.0396 3.188L49.1396 14.71H46.5636L48.3556 10.734L45.1776 3.188H47.8516L49.6576 8.074L51.4496 3.188H54.0396Z" fill="black"/>
</svg>
